HIERARCHY
ROOT Hips
{
	OFFSET 0.00000 0.00000 0.00000
	CHANNELS 6 Xposition Yposition Zposition Zrotation Yrotation Xrotation 
	JOINT LHipJoint
	{
		OFFSET 0 0 0
		CHANNELS 3 Zrotation Yrotation Xrotation
		JOINT LeftHip
		{
			OFFSET 1.38615 -1.80049 0.80104
			CHANNELS 3 Zrotation Yrotation Xrotation
			JOINT LeftKnee
			{
				OFFSET 2.50172 -6.87341 0.00000
				CHANNELS 3 Zrotation Yrotation Xrotation
				JOINT LeftAnkle
				{
					OFFSET 2.67523 -7.35014 0.00000
					CHANNELS 3 Zrotation Yrotation Xrotation
					JOINT LeftToe
					{
						OFFSET 0.17446 -0.47932 2.13155
						CHANNELS 3 Zrotation Yrotation Xrotation
						End Site
						{
							OFFSET 0.00000 -0.00000 1.10023
						}
					}
				}
			}
		}
	}
	JOINT RHipJoint
	{
		OFFSET 0 0 0
		CHANNELS 3 Zrotation Yrotation Xrotation
		JOINT RightHip
		{
			OFFSET -1.18047 -1.80049 0.80104
			CHANNELS 3 Zrotation Yrotation Xrotation
			JOINT RightKnee
			{
				OFFSET -2.59789 -7.13765 0.00000
				CHANNELS 3 Zrotation Yrotation Xrotation
				JOINT RightAnkle
				{
					OFFSET -2.62125 -7.20183 0.00000
					CHANNELS 3 Zrotation Yrotation Xrotation
					JOINT RightToe
					{
						OFFSET -0.31287 -0.85960 2.07814
						CHANNELS 3 Zrotation Yrotation Xrotation
						End Site
						{
							OFFSET -0.00000 -0.00000 1.11766
						}
					}
				}
			}
		}
	}
	JOINT lowerback
	{
		OFFSET 0 0 0
		CHANNELS 3 Zrotation Yrotation Xrotation
		JOINT Chest
		{
			OFFSET -0.01587 2.16157 -0.12309
			CHANNELS 3 Zrotation Yrotation Xrotation
			JOINT Chest2
			{
				OFFSET 0.04727 2.16674 -0.03569
				CHANNELS 3 Zrotation Yrotation Xrotation
				JOINT lowerneck
				{
					OFFSET 0 0 0
					CHANNELS 3 Zrotation Yrotation Xrotation
					JOINT Neck
					{
						OFFSET -0.08586 1.60335 0.32783
						CHANNELS 3 Zrotation Yrotation Xrotation
						JOINT Head
						{
							OFFSET 0.07583 1.65857 -0.31618
							CHANNELS 3 Zrotation Yrotation Xrotation
							End Site
							{
								OFFSET 0.03386 1.69434 -0.14584
							}
						}
					}
				}
				JOINT LeftCollar
				{
					OFFSET 0 0 0
					CHANNELS 3 Zrotation Yrotation Xrotation
					JOINT LeftShoulder
					{
						OFFSET 3.17393 1.01901 -0.52897
CHANNELS 3 Zrotation Xrotation Yrotation
						JOINT LeftElbow
						{
OFFSET 0 -5.252870 -0.000000
CHANNELS 3 Zrotation Xrotation Yrotation
							JOINT LeftWrist
							{
OFFSET 0 -3.510140 0.000000
CHANNELS 3 Zrotation Xrotation Yrotation
								JOINT lhand
								{
									OFFSET 0 0 0
CHANNELS 3 Zrotation Xrotation Yrotation
									JOINT LFingers
									{
OFFSET 0 -0.706180 -0.000000
CHANNELS 3 Zrotation Xrotation Yrotation
										End Site
										{
OFFSET 0 -0.569340 -0.000000
										}
									}
								}
								JOINT LThumb
								{
OFFSET 0 0.000000 0.000000
CHANNELS 3 Zrotation Xrotation Yrotation
									End Site
									{
OFFSET 0 -0.578030 0.578030
									}
								}
							}
						}
					}
				}
				JOINT RightCollar
				{
					OFFSET 0 0 0
					CHANNELS 3 Zrotation Yrotation Xrotation
					JOINT RightShoulder
					{
						OFFSET -2.99471 1.26495 -0.61125
CHANNELS 3 Zrotation Xrotation Yrotation
						JOINT RightElbow
						{
OFFSET 0 -5.287210 -0.000000
CHANNELS 3 Zrotation Xrotation Yrotation
							JOINT RightWrist
							{
OFFSET 0 -3.505440 0.000000
CHANNELS 3 Zrotation Xrotation Yrotation
								JOINT rhand
								{
									OFFSET 0 0 0
CHANNELS 3 Zrotation Xrotation Yrotation
									JOINT RFingers
									{
OFFSET 0 -0.885000 -0.000000
CHANNELS 3 Zrotation Xrotation Yrotation
										End Site
										{
OFFSET 0 -0.713510 -0.000000
										}
									}
								}
								JOINT RThumb
								{
OFFSET 0 0.000000 0.000000
CHANNELS 3 Zrotation Xrotation Yrotation
									End Site
									{
OFFSET 0 -0.724400 0.724400
									}
								}
							}
						}
					}
				}
			}
		}
	}
}
MOTION
Frames: 5
Frame Time: 0.008333333333333333
8.206850 18.437124 5.518454 -175.041831 35.537066 -162.431845 0.000000 0.000000 0.000000 -20.911323 8.244545 -5.991217 0.269719 3.338634 9.223074 0.231652 -0.969795 -8.800120 1.183974 -6.905336 -19.435333 0.000000 0.000000 0.000000 23.146475 4.479646 -33.287355 -1.752274 -8.329656 23.720063 -0.105854 -4.083586 -8.994339 -0.005680 0.488638 -1.342595 -5.852249 -1.934982 2.395082 2.988751 -2.545752 3.753436 6.395346 -1.438065 2.954175 -10.230075 -5.668810 -11.900017 12.055526 -7.317927 36.408730 6.060884 -2.142031 15.771996 0.000000 0.000000 0.000000 3.219372 0.044233 -21.410874 17.299116 -27.250410 4.223341 2.354184 6.815117 -38.267774 0.000000 0.000000 0.000000 -7.125000 0.000000 0.000000 -40.236908 63.763021 19.862341 0.000000 0.000000 0.000000 -3.541084 -0.531119 10.072433 -15.652079 -25.046618 -3.497418 -12.577800 -6.221833 -11.365709 0.000000 0.000000 0.000000 7.125000 0.000000 0.000000 10.198842 18.444804 6.552640
8.233730 18.459851 5.525717 -175.130155 35.110935 -162.064342 0.000000 0.000000 0.000000 -20.657415 7.471052 -6.655903 0.309845 3.577114 9.889938 0.226442 -1.003764 -8.689271 1.018929 -6.416444 -17.999518 0.000000 0.000000 0.000000 23.240474 4.477678 -33.564782 -1.720631 -8.258086 23.500739 -0.100402 -4.420863 -9.204949 -0.002901 -0.142356 0.391055 -5.271965 -1.369266 2.151295 2.493301 -1.770949 3.770514 5.544019 -1.025884 2.946864 -8.998174 -6.309782 -11.964014 12.298184 -8.699425 35.848143 5.657942 -2.523986 15.682275 0.000000 0.000000 0.000000 4.490151 -0.867669 -23.439879 17.017057 -26.879894 4.095213 3.023548 6.787969 -38.237054 0.000000 0.000000 0.000000 -7.125000 0.000000 0.000000 -39.538806 63.921537 19.606647 0.000000 0.000000 0.000000 -2.136182 -0.757949 8.052277 -15.881230 -25.359117 -3.595061 -12.524381 -6.054353 -11.279972 0.000000 0.000000 0.000000 7.125000 0.000000 0.000000 10.238765 18.534027 6.558577
8.279600 18.465466 5.494594 -175.022446 35.823018 -162.284078 0.000000 0.000000 0.000000 -20.634438 7.896422 -6.392515 0.326693 3.673629 10.160329 0.230462 -0.692668 -8.851206 0.903762 -6.055699 -16.947046 0.000000 0.000000 0.000000 23.314485 4.771722 -32.910106 -1.714399 -8.243999 23.457563 -0.113854 -4.205216 -9.301099 -0.021251 -0.855370 2.351359 -5.333969 -1.010953 2.120612 2.483874 -1.283885 3.883775 5.573106 -0.786118 3.013309 -9.056570 -6.476457 -12.114954 12.258948 -8.909603 36.000561 5.628743 -2.614035 15.836387 0.000000 0.000000 0.000000 4.439597 -0.910683 -23.700893 17.020205 -26.884386 4.096472 3.529380 6.686447 -38.219907 0.000000 0.000000 0.000000 -7.125000 0.000000 0.000000 -39.017326 64.046327 19.420269 0.000000 0.000000 0.000000 -2.103745 -0.806006 7.974089 -16.015633 -25.541743 -3.652705 -12.482158 -6.171898 -11.315887 0.000000 0.000000 0.000000 7.125000 0.000000 0.000000 10.267051 18.500245 6.585146
8.319045 18.461233 5.468414 -175.029558 36.235642 -162.536055 0.000000 0.000000 0.000000 -20.680784 7.989153 -6.005746 0.333150 3.709527 10.260965 0.218821 -0.142716 -8.789418 1.025454 -6.423440 -18.024468 0.000000 0.000000 0.000000 23.266586 4.978259 -32.438924 -1.724978 -8.268026 23.531169 -0.122531 -4.087807 -9.382451 -0.027711 -1.073967 2.952299 -5.447878 -0.843761 2.238560 2.588175 -1.061291 3.956647 5.751643 -0.678447 2.999278 -9.365408 -6.536621 -12.356253 12.278833 -8.918883 36.133715 5.704492 -2.650658 15.988266 0.000000 0.000000 0.000000 4.193612 -0.971306 -23.654132 17.086397 -26.971563 4.126467 3.422361 6.302797 -38.296708 0.000000 0.000000 0.000000 -7.125000 0.000000 0.000000 -39.226557 64.075628 19.567235 0.000000 0.000000 0.000000 -2.340211 -0.964543 8.250844 -16.122902 -25.686894 -3.699077 -12.509325 -6.489035 -11.335405 0.000000 0.000000 0.000000 7.125000 0.000000 0.000000 10.247469 18.479105 6.577037
8.349766 18.452492 5.452379 -175.267766 36.207956 -162.719957 0.000000 0.000000 0.000000 -20.820593 7.690139 -5.955156 0.352856 3.814766 10.556382 0.200255 0.335457 -8.580615 1.372000 -7.379194 -20.859383 0.000000 0.000000 0.000000 23.056497 5.001514 -32.322914 -1.734199 -8.288939 23.595177 -0.126174 -4.067063 -9.444498 -0.015544 -0.706591 1.942195 -5.480791 -0.761624 2.335627 2.586651 -0.952416 3.993587 5.770908 -0.623357 2.968809 -9.419353 -6.629746 -12.550834 12.350032 -9.079772 35.988901 5.703734 -2.720747 15.998735 0.000000 0.000000 0.000000 4.196683 -1.277144 -23.828136 17.086145 -26.971226 4.126390 3.030829 5.847564 -38.302664 0.000000 0.000000 0.000000 -7.125000 0.000000 0.000000 -39.620638 63.973485 19.700983 0.000000 0.000000 0.000000 -2.343496 -1.272703 8.280500 -16.239216 -25.843826 -3.749657 -12.647646 -6.787591 -11.211234 0.000000 0.000000 0.000000 7.125000 0.000000 0.000000 10.154549 18.596319 6.488916
